<svg width="446" height="228" class="logo" viewBox="0 0 446.48 228.32">
  <path fill="#322600" fill-rule="evenodd" d="M1.77 209q.42 7.68 3.2 12.5a9.25 9.25 0 0 0 8.58 4.81 8.81 8.81 0 0 0 5.7-1.68 5.64 5.64 0 0 0 2.1-4.66 9.22 9.22 0 0 0-1.16-4.6 14.43 14.43 0 0 0-3.12-3.74 55 55 0 0 0-5.19-3.85 74.55 74.55 0 0 1-6.23-4.55 17.31 17.31 0 0 1-3.8-4.52 11.64 11.64 0 0 1-1.5-5.93 10.64 10.64 0 0 1 2.2-6.78 13 13 0 0 1 5.84-4.1 23.25 23.25 0 0 1 8-1.33 21.47 21.47 0 0 1 6 .69 22.17 22.17 0 0 1 4.46 1.9q.92.5 1.36.71a2 2 0 0 0 .85.21 1 1 0 0 0 .92-.68 7.44 7.44 0 0 0 .51-2.17H32q-.32 4.67-.31 15.83h-1.45a21.89 21.89 0 0 0-1.7-7.09 14.67 14.67 0 0 0-3.91-5.51 8.47 8.47 0 0 0-5.7-2.12 7 7 0 0 0-4.78 1.59 5.5 5.5 0 0 0-1.84 4.43 7.18 7.18 0 0 0 1.09 4 13.24 13.24 0 0 0 3 3.17q1.91 1.49 7.33 5.25a63.89 63.89 0 0 1 5.71 4.39 15.63 15.63 0 0 1 3.46 4.41 12.22 12.22 0 0 1 1.35 5.87 10.8 10.8 0 0 1-2.38 7.1 14.14 14.14 0 0 1-6.37 4.32 26.25 26.25 0 0 1-8.89 1.43 28.05 28.05 0 0 1-6.6-.65 24.23 24.23 0 0 1-4.89-1.76A5 5 0 0 0 3 225a1 1 0 0 0-.92.67 7.77 7.77 0 0 0-.54 2.18H0Q.29 222.9.28 209zm70.33 11.34a8.76 8.76 0 0 0 .82 4.34 3 3 0 0 0 2.82 1.32v1.36q-2-.19-4-.19a58 58 0 0 0-11.27.92v-4.68q-3 4.88-10.32 4.87-5.16 0-7.32-2.59a7.53 7.53 0 0 1-1.44-3.13 24.06 24.06 0 0 1-.46-5.23V200.8a8.81 8.81 0 0 0-.8-4.36 3 3 0 0 0-2.8-1.34v-1.36c1.35.12 2.69.18 4 .18A60.13 60.13 0 0 0 52.6 193v27.81a5.07 5.07 0 0 0 .76 3.08 2.82 2.82 0 0 0 2.41 1 4.57 4.57 0 0 0 2.27-.59 4.79 4.79 0 0 0 1.75-1.66 4.39 4.39 0 0 0 .66-2.39V200.8a8.66 8.66 0 0 0-.82-4.36 3 3 0 0 0-2.82-1.34v-1.36c1.35.12 2.69.18 4 .18A59.73 59.73 0 0 0 72.1 193v27.3zm15.26-43.66a8.4 8.4 0 0 1 5.22 1.42 5.64 5.64 0 0 1 0 8.33 8.34 8.34 0 0 1-5.22 1.43 8.38 8.38 0 0 1-5.25-1.42 4.93 4.93 0 0 1-1.8-4.16 5 5 0 0 1 1.8-4.18 8.38 8.38 0 0 1 5.25-1.42zm6.2 44.7a9.14 9.14 0 0 0 .35 2.82 2.39 2.39 0 0 0 1.15 1.43 4.76 4.76 0 0 0 2.15.41v1.36c-4.65-.17-7.72-.25-9.21-.25s-4.74.08-9.73.25V226a4.73 4.73 0 0 0 2.15-.41 2.39 2.39 0 0 0 1.15-1.43 9.15 9.15 0 0 0 .35-2.82V200.8a8.66 8.66 0 0 0-.82-4.36 3 3 0 0 0-2.82-1.34v-1.36c1.37.12 2.71.18 4 .18a59.73 59.73 0 0 0 11.28-.92v28.34zm8.83-6.48a22.48 22.48 0 0 0 1.53 6.14 10.6 10.6 0 0 0 2.92 4.15 6.22 6.22 0 0 0 4.1 1.49 4 4 0 0 0 2.71-.91 3.3 3.3 0 0 0 1.06-2.65 7 7 0 0 0-.75-3.24 10.7 10.7 0 0 0-1.83-2.56c-.71-.75-1.86-1.85-3.45-3.27q-2.76-2.55-4.16-4a14.72 14.72 0 0 1-2.42-3.47 9.44 9.44 0 0 1-1-4.39 7.71 7.71 0 0 1 1.67-4.91 10.84 10.84 0 0 1 4.46-3.27 15.53 15.53 0 0 1 6.05-1.16 19.6 19.6 0 0 1 4.77.55 14.87 14.87 0 0 1 3.4 1.22 2.48 2.48 0 0 0 1.17.38c.86 0 1.41-.69 1.62-2.09h1.3q-.26 3.39-.26 11.68H124a16.75 16.75 0 0 0-2.42-7.21 6.23 6.23 0 0 0-5.56-3 3.94 3.94 0 0 0-2.75 1 3.39 3.39 0 0 0-1.09 2.63 5.64 5.64 0 0 0 1.46 3.85 24.62 24.62 0 0 0 3.44 3.2c1.32 1 2.28 1.79 2.9 2.3 1.6 1.33 2.89 2.47 3.84 3.45a12.32 12.32 0 0 1 2.29 3.31 9.7 9.7 0 0 1 .86 4.19 8.3 8.3 0 0 1-1.75 5.18 11.38 11.38 0 0 1-4.76 3.57 16.67 16.67 0 0 1-6.56 1.26 12.47 12.47 0 0 1-6.69-1.64 7.8 7.8 0 0 0-3.25-1.08c-.83 0-1.43.75-1.8 2.25h-1.31q.26-3.71.26-12.95zm30.62 0a22.48 22.48 0 0 0 1.53 6.14 10.6 10.6 0 0 0 2.92 4.15 6.21 6.21 0 0 0 4.1 1.49 4 4 0 0 0 2.71-.91 3.3 3.3 0 0 0 1.06-2.65 7 7 0 0 0-.75-3.24 10.7 10.7 0 0 0-1.83-2.56c-.71-.75-1.86-1.85-3.45-3.27q-2.76-2.55-4.16-4a14.72 14.72 0 0 1-2.42-3.47 9.44 9.44 0 0 1-1-4.39 7.71 7.71 0 0 1 1.67-4.91 10.84 10.84 0 0 1 4.46-3.27 15.52 15.52 0 0 1 6.05-1.16 19.61 19.61 0 0 1 4.77.55 14.86 14.86 0 0 1 3.4 1.22 2.48 2.48 0 0 0 1.17.38c.86 0 1.41-.69 1.62-2.09h1.3q-.26 3.39-.26 11.68h-1.3a16.75 16.75 0 0 0-2.42-7.21 6.23 6.23 0 0 0-5.56-3 3.94 3.94 0 0 0-2.74 1 3.38 3.38 0 0 0-1.09 2.63 5.64 5.64 0 0 0 1.46 3.85 24.62 24.62 0 0 0 3.44 3.2c1.32 1 2.28 1.79 2.9 2.3 1.6 1.33 2.89 2.47 3.84 3.45a12.32 12.32 0 0 1 2.29 3.31 9.7 9.7 0 0 1 .86 4.19 8.3 8.3 0 0 1-1.75 5.18 11.38 11.38 0 0 1-4.76 3.57 16.67 16.67 0 0 1-6.56 1.26 12.47 12.47 0 0 1-6.69-1.64 7.8 7.8 0 0 0-3.25-1.08c-.83 0-1.43.75-1.8 2.25h-1.31q.26-3.71.26-12.95zm40.72-7.53c0 .5-.06 1.29-.06 2.33q0 6.24 2.16 8.88a6.64 6.64 0 0 0 5.31 2.65q4.72 0 7.86-4.34l1.1.41a19.32 19.32 0 0 1-2.66 5.37 13.69 13.69 0 0 1-4.5 4.06 12.57 12.57 0 0 1-6.4 1.59q-6.81 0-10.9-4.23t-4.1-13.48a20.91 20.91 0 0 1 2.15-10 13.65 13.65 0 0 1 5.9-5.88 18.78 18.78 0 0 1 8.64-1.9q12.24 0 12.25 14.54zm7.27-1.24a35.27 35.27 0 0 0-.74-8.46c-.54-2.22-1.38-3.32-2.52-3.32s-2.14.93-2.85 2.79a31.94 31.94 0 0 0-1.39 9zm27.43-24.63q7.54.19 22.71.19 9.53 0 13.55-.19c-.3 4.05-.44 7.68-.44 10.89a43.59 43.59 0 0 0 .18 4.68h-1.49q-1.57-7.51-4.78-10.8A9.77 9.77 0 0 0 231 183h-.85a8.11 8.11 0 0 0-2.56.28 1.78 1.78 0 0 0-1.1 1.12 8.87 8.87 0 0 0-.29 2.68v16.59h.66a7.06 7.06 0 0 0 4.16-1.3 10.77 10.77 0 0 0 3.06-3.26 12.52 12.52 0 0 0 1.62-4h1.48q-.24 3.79-.25 6.3v2.91c0 1.86.13 4.93.41 9.22h-1.49a11.83 11.83 0 0 0-1.63-4.39 9.09 9.09 0 0 0-3.11-3.07 8.27 8.27 0 0 0-4.28-1.12h-.66v14.91a10.49 10.49 0 0 0 .55 4 2.92 2.92 0 0 0 2 1.66 18.58 18.58 0 0 0 4.65.41v1.49q-8.74-.19-13.37-.19-1.07 0-11.62.19v-1.3a9.3 9.3 0 0 0 3-.51 2.22 2.22 0 0 0 1.26-1.52 13.24 13.24 0 0 0 .33-3.55v-32.19a13.11 13.11 0 0 0-.35-3.54 2.3 2.3 0 0 0-1.29-1.52 9.17 9.17 0 0 0-3-.51v-1.3zm48.06-4.81a8.4 8.4 0 0 1 5.22 1.42 5.64 5.64 0 0 1 0 8.33 10.36 10.36 0 0 1-10.47 0 4.93 4.93 0 0 1-1.8-4.16 5 5 0 0 1 1.8-4.18 8.38 8.38 0 0 1 5.25-1.42zm6.2 44.7a9.14 9.14 0 0 0 .35 2.82 2.39 2.39 0 0 0 1.15 1.43 4.76 4.76 0 0 0 2.15.41v1.36c-4.65-.17-7.72-.25-9.21-.25s-4.74.08-9.73.25V226a4.73 4.73 0 0 0 2.15-.41 2.39 2.39 0 0 0 1.15-1.43 9.14 9.14 0 0 0 .35-2.82V200.8a8.66 8.66 0 0 0-.82-4.36 3 3 0 0 0-2.82-1.34v-1.36c1.37.12 2.71.18 4 .18a59.73 59.73 0 0 0 11.29-.92v28.34zm21.4-23.68q3-4.88 10.32-4.87c3.45 0 5.88.86 7.32 2.59a7.31 7.31 0 0 1 1.44 3.16 23.45 23.45 0 0 1 .46 5.23v17.57a8.82 8.82 0 0 0 .35 2.82 2.36 2.36 0 0 0 1.12 1.43 4.68 4.68 0 0 0 2.14.41v1.36c-4.65-.17-7.66-.25-9.06-.25s-4.57.08-9.22.25V226a3.26 3.26 0 0 0 1.77-.41 2.34 2.34 0 0 0 .92-1.4 10.67 10.67 0 0 0 .29-2.84v-21.06a5 5 0 0 0-.77-3.08 2.8 2.8 0 0 0-2.4-1 4.61 4.61 0 0 0-2.28.61 4.67 4.67 0 0 0-1.74 1.66 4.4 4.4 0 0 0-.67 2.39v20.51a10.6 10.6 0 0 0 .29 2.82 2.3 2.3 0 0 0 .93 1.43 3.35 3.35 0 0 0 1.78.41v1.36c-4.39-.17-7.24-.25-8.57-.25-1.5 0-4.74.08-9.73.25V226a4.73 4.73 0 0 0 2.15-.41 2.39 2.39 0 0 0 1.15-1.43 9.15 9.15 0 0 0 .35-2.82V200.8a8.66 8.66 0 0 0-.82-4.36 3 3 0 0 0-2.82-1.34v-1.36c1.37.12 2.71.18 4 .18a59.73 59.73 0 0 0 11.31-.92v4.66zm42.56 1.74a6.7 6.7 0 0 0-1-3.69c-.68-1.09-1.95-1.63-3.78-1.63a5.61 5.61 0 0 0-1.75.31 7.67 7.67 0 0 0-1.66.79c2.9 1.08 4.33 3 4.33 5.86a5.14 5.14 0 0 1-.77 2.76 5.51 5.51 0 0 1-2.2 2 7.08 7.08 0 0 1-3.26.72 5.2 5.2 0 0 1-2.79-.75 5 5 0 0 1-1.87-2 6.18 6.18 0 0 1-.66-2.87 5.79 5.79 0 0 1 1.09-3.47 8.5 8.5 0 0 1 2.93-2.49 22.71 22.71 0 0 1 10.39-2.09 23.72 23.72 0 0 1 6.27.71 9.12 9.12 0 0 1 4.3 2.55 6.68 6.68 0 0 1 1.7 3.37 28.72 28.72 0 0 1 .43 5.71v17.36a7.48 7.48 0 0 0 .22 2.16.79.79 0 0 0 .77.63 2 2 0 0 0 .93-.24c.28-.16.65-.4 1.09-.71l.64 1.1a9.31 9.31 0 0 1-3.54 1.83 18.84 18.84 0 0 1-4.89.55 7.63 7.63 0 0 1-5-1.37 4.64 4.64 0 0 1-1.66-3.53 9.78 9.78 0 0 1-3.83 3.58 11.35 11.35 0 0 1-5.45 1.33 8.43 8.43 0 0 1-6-2 7 7 0 0 1-2.17-5.4 7.93 7.93 0 0 1 2-5.54 14.15 14.15 0 0 1 6.24-3.61c2.3-.82 4-1.47 5.11-1.95a10.35 10.35 0 0 0 2.79-1.72 3.06 3.06 0 0 0 1.12-2.36v-5.79zm0 8.45a20.45 20.45 0 0 1-2.54 2.85 9.85 9.85 0 0 0-3.17 7.32q0 4.59 3.3 4.58a3.29 3.29 0 0 0 2.41-1.07v-13.69zm32.39-10.19q3-4.88 10.32-4.87c3.45 0 5.88.86 7.32 2.59a7.31 7.31 0 0 1 1.44 3.16 23.45 23.45 0 0 1 .46 5.23v17.57a8.82 8.82 0 0 0 .35 2.82 2.36 2.36 0 0 0 1.12 1.43 4.68 4.68 0 0 0 2.14.41v1.36c-4.65-.17-7.66-.25-9.06-.25s-4.57.08-9.22.25V226a3.26 3.26 0 0 0 1.77-.41 2.34 2.34 0 0 0 .92-1.4 10.67 10.67 0 0 0 .29-2.84v-21.06a5 5 0 0 0-.77-3.08 2.8 2.8 0 0 0-2.4-1 4.61 4.61 0 0 0-2.28.61 4.67 4.67 0 0 0-1.74 1.66 4.4 4.4 0 0 0-.67 2.39v20.51a10.6 10.6 0 0 0 .29 2.82 2.3 2.3 0 0 0 .93 1.43 3.35 3.35 0 0 0 1.78.41v1.36c-4.39-.17-7.24-.25-8.57-.25-1.5 0-4.74.08-9.73.25V226a4.73 4.73 0 0 0 2.15-.41 2.39 2.39 0 0 0 1.15-1.43 9.15 9.15 0 0 0 .35-2.82V200.8a8.66 8.66 0 0 0-.82-4.36 3 3 0 0 0-2.82-1.34v-1.36c1.37.12 2.71.18 4 .18a59.73 59.73 0 0 0 11.27-.89v4.66zm55 19.59a19.23 19.23 0 0 1-2.65 5.36 13.74 13.74 0 0 1-4.51 4.07 12.57 12.57 0 0 1-6.4 1.59q-7.08 0-11.37-4.23t-4.27-13.48a20.91 20.91 0 0 1 2.15-10 13.65 13.65 0 0 1 5.9-5.88 18.78 18.78 0 0 1 8.64-1.9 20.28 20.28 0 0 1 4.89.55 13.66 13.66 0 0 1 3.66 1.4 7.79 7.79 0 0 1 2.84 2.81 7.5 7.5 0 0 1 1 3.93 6.45 6.45 0 0 1-.81 3.22A5.81 5.81 0 0 1 411 207a6.27 6.27 0 0 1-3.2.82 5.51 5.51 0 0 1-6-5.86 6.07 6.07 0 0 1 1.53-4.1 7.76 7.76 0 0 1 3.78-2.39 4.26 4.26 0 0 0-2.59-.76c-2.79 0-4.73 1.48-5.86 4.44A30 30 0 0 0 397 209.7q0 6.24 2.36 8.88a7.44 7.44 0 0 0 5.75 2.65 9.36 9.36 0 0 0 7.85-4.34l1.11.41zm15.68-9.93c0 .5-.06 1.29-.06 2.33q0 6.24 2.16 8.88a6.64 6.64 0 0 0 5.31 2.65q4.72 0 7.86-4.34l1.1.41a19.33 19.33 0 0 1-2.66 5.37 13.69 13.69 0 0 1-4.5 4.06 12.57 12.57 0 0 1-6.4 1.59q-6.81 0-10.9-4.23t-4.1-13.48a20.91 20.91 0 0 1 2.15-10 13.65 13.65 0 0 1 5.9-5.88 18.78 18.78 0 0 1 8.64-1.9q12.24 0 12.25 14.54zm7.27-1.24a35.27 35.27 0 0 0-.74-8.46c-.54-2.22-1.38-3.32-2.52-3.32s-2.14.93-2.85 2.79a31.94 31.94 0 0 0-1.39 9z" class="logo__text"/>
  <g fill-rule="evenodd" class="logo__image">
    <path fill="#917426" d="M206.33 83.77c-33 5.49-59.62-4.59-79.74 9.83 43-.51 60.65 8.29 88.39 6.22 29.85-1.28 53.61-15.35 61-21.24-6.32-6.51-13.28-14-17.79-20.09-5.34 7.28-43.6 23.91-51.86 25.28z"/>
    <path fill="#624f16" d="M243.86 132c2-1 4.53-3.55 3.65-6.86-4.06-2-47-15.08-90.86-34.54 38.56 25.73 82.75 40.34 87.21 41.4z"/>
    <path fill="#6b5619" d="M264.32 133.06c6.19.78 9.56-5.68 11.5-9.6-12.23-8.89-74.52-56.6-148.84-32.9 87.5-13.38 112.89 39.44 137.34 42.5z"/>
    <path fill="#745d1d" d="M259.41 111.9c-48.91 5.2-77.41 1.1-128.26-7.54 31.73 16.24 78.39 24.76 144.53 19.19 2.44-1.59 2.7-4.42 2.57-6.82 4.95-3.14 5.14-12.39 4.78-11.94-6.03 2.91-12.49 4.97-23.62 7.11z"/>
    <path fill="#7e6420" d="M135.21 96.32c42.5 24.7 122.37 23.46 148.77 7.94 3.81-2.24 5-6.51 5.82-10.2-3.32 5.64-75.22 24.47-154.59 2.26z"/>
    <path fill="#876c23" d="M165.43 88.93c54.67 14.8 119.41 13.56 124.36 5.14-1.9-6.73-8.25-10.12-14.07-15.67-17.72 14.19-51.14 14-110.29 10.53z"/>
    <path fill="#c79c34" d="M122.45 12.58C138.77 6.9 170.09 5.52 180.62 9c-10.22-.29-47.36-2.47-74.32 25.36 22.74-11.72 50.85-18.54 65-17.58-18.72 1.49-58.86 18-84.82 40.27 56.1-25.82 107.89-33.52 142.62-27.35-20.95-43.17-86.04-30.25-106.65-17.12z"/>
    <path fill="#9b7c29" d="M240.59 41.42c-19 8.81-50 31.87-77.63 34.7-25.16.09-28.36-5-47.81-2.33 21.6 4.93 32 10.2 45.66 10.47 6.8.14 20.07-1.17 33.16-5.45 6.28-2.05 12.11-4.14 17.25-6.11 8.23-3.16 36.64-15 42.13-18.91-2.95-2.66-6.92-6.17-12.76-12.37z"/>
    <path fill="#b18c2f" d="M230.19 49.67c4-.35 18.17-.4 18.63-.52-1.71-1.46-7.53-7-8.23-7.73-32.09-3.66-72.93-.63-102.66 11.58 45.07-6.81 59.56-3.37 92.26-3.33z"/>
    <path fill="#bc9432" d="M130.11 36.52C180.4 29.88 220 34 240.59 41.42c-4.61-5.26-7.72-8.71-11.49-11.72-11.32-2.19-20-3.7-31.51-3.6-9.26.1-36.77-.18-67.48 10.42z"/>
    <path fill="#594712" d="M244.44 131.67l-8.6-2.92c-15.2 4.69-60.88-1.91-80.77-3.08 17.7 8.26 75.01 18.11 89.37 6z"/>
    <path fill="#a6842c" d="M230.19 49.67c-9.11.82-73.66 2.87-119.07 38.4 12.05-5.37 64.24-34.91 147-29.57-3-2.53-6.47-6.66-9.32-9.34l-14.05.12z"/>
  </g>
</svg>